<svg width="262" height="375" viewBox="0 0 262 375" fill="none" xmlns="http://www.w3.org/2000/svg">
    <path d="M46.1667 0H35.8333C33.0928 0 30.4644 1.09571 28.5266 3.04609C26.5887 4.99647 25.5 7.64175 25.5 10.4V52H35.8333V31.2H46.1667V52H56.5V10.4C56.5 7.64175 55.4113 4.99647 53.4734 3.04609C51.5356 1.09571 48.9072 0 46.1667 0ZM46.1667 20.8H35.8333V10.4H46.1667V20.8ZM82.3333 0H61.6667V52H72V31.2H82.3333C85.0739 31.2 87.7022 30.1043 89.6401 28.1539C91.578 26.2035 92.6667 23.5583 92.6667 20.8V10.4C92.6667 7.64175 91.578 4.99647 89.6401 3.04609C87.7022 1.09571 85.0739 0 82.3333 0ZM82.3333 20.8H72V10.4H82.3333V20.8ZM113.333 10.4V41.6H118.5V52H97.8333V41.6H103V10.4H97.8333V0H118.5V10.4H113.333Z" fill="white"/>
    <path d="M174.343 24.3099C174.073 24.036 173.705 23.8806 173.321 23.8778C172.936 23.8751 172.566 24.0253 172.292 24.2954C172.018 24.5655 171.863 24.9333 171.86 25.318C171.857 25.7026 172.008 26.0726 172.278 26.3465L177.651 31.7776H151.81C151.427 31.7776 151.059 31.9298 150.789 32.2007C150.518 32.4716 150.366 32.839 150.366 33.2221C150.366 33.6052 150.518 33.9726 150.789 34.2435C151.059 34.5143 151.427 34.6665 151.81 34.6665H177.651L172.278 40.011C172.144 40.1457 172.038 40.3053 171.966 40.481C171.894 40.6566 171.857 40.8446 171.858 41.0344C171.859 41.2242 171.897 41.412 171.97 41.5871C172.043 41.7622 172.15 41.9211 172.285 42.0549C172.42 42.1886 172.579 42.2945 172.755 42.3665C172.931 42.4385 173.119 42.4752 173.308 42.4746C173.498 42.4739 173.686 42.4358 173.861 42.3626C174.036 42.2893 174.195 42.1823 174.329 42.0476L183.154 33.2221L174.343 24.3099Z" fill="white"/>
    <path d="M159.624 26.6501C159.911 26.6517 160.192 26.5679 160.431 26.4093C160.67 26.2507 160.857 26.0245 160.967 25.7596C161.077 25.4946 161.106 25.2028 161.049 24.9215C160.993 24.6402 160.854 24.3821 160.65 24.1801L155.291 18.7779H181.118C181.501 18.7779 181.868 18.6257 182.139 18.3548C182.41 18.0839 182.562 17.7165 182.562 17.3334C182.562 16.9503 182.41 16.5829 182.139 16.312C181.868 16.0411 181.501 15.889 181.118 15.889H155.291L160.65 10.5012C160.784 10.3665 160.89 10.2068 160.962 10.0312C161.034 9.85561 161.07 9.66754 161.07 9.47775C161.069 9.28795 161.031 9.10015 160.958 8.92506C160.884 8.74997 160.777 8.59103 160.643 8.4573C160.508 8.32357 160.348 8.21768 160.173 8.14566C159.997 8.07365 159.809 8.03694 159.619 8.03761C159.236 8.03896 158.869 8.19253 158.599 8.46452L149.773 17.3334L158.599 26.2023C158.731 26.3414 158.89 26.4527 159.067 26.5295C159.243 26.6064 159.432 26.6474 159.624 26.6501Z" fill="white"/>
    <path fill-rule="evenodd" clip-rule="evenodd" d="M15.3092 282.526C15.1608 282.378 15.0431 282.202 14.9627 282.009C14.8824 281.815 14.841 281.608 14.841 281.398C14.841 281.188 14.8824 280.981 14.9627 280.787C15.0431 280.593 15.1608 280.418 15.3092 280.27L24.8717 270.707C25.0198 270.559 25.1956 270.441 25.3893 270.361C25.5829 270.28 25.7905 270.239 26.0001 270.239C26.2097 270.239 26.4173 270.28 26.6109 270.361C26.8046 270.441 26.9804 270.559 27.1285 270.707L36.691 280.27C36.9902 280.569 37.1584 280.975 37.1584 281.398C37.1584 281.821 36.9902 282.227 36.691 282.526C36.3917 282.826 35.9858 282.994 35.5626 282.994C35.1394 282.994 34.7335 282.826 34.4342 282.526L26.0001 274.089L17.566 282.526C17.4179 282.675 17.2421 282.792 17.0484 282.873C16.8548 282.953 16.6472 282.995 16.4376 282.995C16.228 282.995 16.0204 282.953 15.8268 282.873C15.6331 282.792 15.4573 282.675 15.3092 282.526Z" fill="white"/>
    <path fill-rule="evenodd" clip-rule="evenodd" d="M26 308.492C25.5773 308.492 25.1719 308.324 24.873 308.025C24.5742 307.726 24.4062 307.321 24.4062 306.898L24.4062 273.429C24.4062 273.007 24.5742 272.601 24.873 272.302C25.1719 272.003 25.5773 271.835 26 271.835C26.4227 271.835 26.8281 272.003 27.127 272.302C27.4258 272.601 27.5937 273.007 27.5937 273.429L27.5937 306.898C27.5937 307.321 27.4258 307.726 27.127 308.025C26.8281 308.324 26.4227 308.492 26 308.492Z" fill="white"/>
    <path fill-rule="evenodd" clip-rule="evenodd" d="M80.7539 107.201C80.5623 107.112 80.3901 106.986 80.2472 106.83C80.1044 106.674 79.9936 106.492 79.9213 106.293C79.8491 106.095 79.8167 105.884 79.826 105.673C79.8354 105.461 79.8863 105.254 79.9758 105.063L85.7371 92.7077C85.8262 92.5161 85.9522 92.3439 86.1079 92.201C86.2636 92.0582 86.446 91.9474 86.6445 91.8752C86.8431 91.8029 87.054 91.7705 87.2651 91.7798C87.4762 91.7892 87.6834 91.8401 87.8748 91.9297L100.23 97.6909C100.617 97.8712 100.916 98.1978 101.062 98.5987C101.208 98.9996 101.188 99.442 101.008 99.8287C100.828 100.215 100.501 100.515 100.1 100.66C99.6994 100.806 99.257 100.787 98.8703 100.607L87.972 95.5223L82.8916 106.423C82.8026 106.614 82.6766 106.786 82.5209 106.929C82.3651 107.072 82.1828 107.183 81.9842 107.255C81.7856 107.327 81.5747 107.36 81.3636 107.35C81.1525 107.341 80.9453 107.29 80.7539 107.201Z" fill="white"/>
    <path d="M119.283 183.675C118.882 183.821 118.44 183.801 118.054 183.621C117.668 183.441 117.369 183.115 117.223 182.715L86.2347 95.4468C86.0889 95.0464 86.1082 94.6045 86.2883 94.2183C86.4684 93.8321 86.7945 93.5333 87.1949 93.3876C87.5953 93.2418 88.0372 93.2611 88.4233 93.4412C88.8095 93.6213 89.1083 93.9474 89.2541 94.3478L120.243 181.616C120.389 182.016 120.369 182.458 120.189 182.844C120.009 183.23 119.683 183.529 119.283 183.675Z" fill="white"/>
    <path fill-rule="evenodd" clip-rule="evenodd" d="M48.0227 98.8008C47.9332 98.6094 47.8823 98.4022 47.8729 98.1911C47.8636 97.9799 47.8959 97.7691 47.9682 97.5705C48.0405 97.3719 48.1512 97.1895 48.2941 97.0338C48.437 96.8781 48.6092 96.7521 48.8008 96.6631L61.1559 90.9018C61.3473 90.8122 61.5545 90.7613 61.7656 90.752C61.9767 90.7426 62.1876 90.775 62.3862 90.8473C62.5848 90.9195 62.7672 91.0303 62.9229 91.1732C63.0786 91.316 63.2046 91.4882 63.2936 91.6798L69.0549 104.035C69.2352 104.422 69.2545 104.864 69.1086 105.265C68.9627 105.666 68.6635 105.992 68.2769 106.173C67.8902 106.353 67.4477 106.372 67.0468 106.226C66.6459 106.08 66.3194 105.781 66.1391 105.395L61.0588 94.4944L50.1605 99.5789C49.969 99.6684 49.7618 99.7193 49.5507 99.7287C49.3396 99.738 49.1287 99.7056 48.9302 99.6334C48.7316 99.5611 48.5492 99.4503 48.3935 99.3075C48.2378 99.1646 48.1118 98.9924 48.0227 98.8008Z" fill="white"/>
    <path d="M28.3807 182.149C27.9803 182.004 27.6542 181.705 27.4742 181.319C27.2941 180.932 27.2748 180.491 27.4205 180.09L59.7764 93.3198C59.9221 92.9194 60.221 92.5933 60.6071 92.4132C60.9933 92.2332 61.4352 92.2139 61.8356 92.3596C62.236 92.5053 62.5621 92.8042 62.7422 93.1903C62.9223 93.5765 62.9415 94.0184 62.7958 94.4188L30.4399 181.189C30.2942 181.59 29.9954 181.916 29.6092 182.096C29.223 182.276 28.7811 182.295 28.3807 182.149Z" fill="white"/>
    <path fill-rule="evenodd" clip-rule="evenodd" d="M108.309 282.526C108.161 282.378 108.043 282.202 107.963 282.009C107.882 281.815 107.841 281.608 107.841 281.398C107.841 281.188 107.882 280.981 107.963 280.787C108.043 280.593 108.161 280.418 108.309 280.27L117.872 270.707C118.02 270.559 118.196 270.441 118.389 270.361C118.583 270.28 118.79 270.239 119 270.239C119.21 270.239 119.417 270.28 119.611 270.361C119.805 270.441 119.98 270.559 120.128 270.707L129.691 280.27C129.99 280.569 130.158 280.975 130.158 281.398C130.158 281.821 129.99 282.227 129.691 282.526C129.392 282.826 128.986 282.994 128.563 282.994C128.139 282.994 127.733 282.826 127.434 282.526L119 274.089L110.566 282.526C110.418 282.675 110.242 282.792 110.048 282.873C109.855 282.953 109.647 282.995 109.438 282.995C109.228 282.995 109.02 282.953 108.827 282.873C108.633 282.792 108.457 282.675 108.309 282.526Z" fill="white"/>
    <path fill-rule="evenodd" clip-rule="evenodd" d="M119 308.492C118.577 308.492 118.172 308.324 117.873 308.025C117.574 307.726 117.406 307.321 117.406 306.898L117.406 273.429C117.406 273.007 117.574 272.601 117.873 272.302C118.172 272.003 118.577 271.835 119 271.835C119.423 271.835 119.828 272.003 120.127 272.302C120.426 272.601 120.594 273.007 120.594 273.429L120.594 306.898C120.594 307.321 120.426 307.726 120.127 308.025C119.828 308.324 119.423 308.492 119 308.492Z" fill="white"/>
    <path d="M26 202.367C40.3598 202.367 52 213.783 52 227.867C52 241.95 40.3598 253.367 26 253.367C11.6402 253.367 0 241.95 0 227.867C0 213.783 11.6402 202.367 26 202.367ZM37.5492 217.667C36.5586 217.685 35.0376 218.195 27.7238 221.14C22.5901 223.242 17.4705 225.377 12.3656 227.545C11.1176 228.027 10.4676 228.497 10.4078 228.956C10.2934 229.838 11.6038 230.111 13.2522 230.631C14.5964 231.054 16.406 231.549 17.3472 231.569C18.2 231.587 19.1516 231.245 20.202 230.549C27.378 225.857 31.0778 223.488 31.3118 223.437C31.4756 223.402 31.7018 223.356 31.8578 223.488C32.0112 223.621 31.9956 223.871 31.9774 223.94C31.8474 224.478 25.1108 230.412 24.7234 230.802L24.5362 230.985C23.1062 232.37 21.6632 233.275 24.154 234.864C26.4056 236.3 27.716 237.215 30.03 238.689C31.512 239.627 32.6742 240.742 34.203 240.606C34.9076 240.543 35.633 239.903 36.0048 237.99C36.8758 233.477 38.5918 223.69 38.987 219.656C39.0109 219.321 38.9961 218.985 38.9428 218.654C38.9107 218.386 38.777 218.14 38.5684 217.965C38.2538 217.715 37.765 217.664 37.5492 217.667Z" fill="white"/>
    <path d="M26 352.554C33.2979 352.554 39.2187 346.129 39.2188 338.21C39.2188 330.292 33.2979 323.867 26 323.867C18.7021 323.867 12.7812 330.292 12.7812 338.21C12.7812 346.129 18.7021 352.554 26 352.554ZM37.75 355.742H32.692C30.6541 356.758 28.3867 357.335 26 357.335C23.6133 357.335 21.3551 356.758 19.308 355.742H14.25C7.75996 355.742 2.5 361.449 2.5 368.492L2.5 370.085C2.5 372.725 4.47363 374.867 6.90625 374.867H45.0937C47.5264 374.867 49.5 372.725 49.5 370.085V368.492C49.5 361.449 44.24 355.742 37.75 355.742Z" fill="white"/>
    <path d="M119 352.554C126.298 352.554 132.219 346.129 132.219 338.21C132.219 330.292 126.298 323.867 119 323.867C111.702 323.867 105.781 330.292 105.781 338.21C105.781 346.129 111.702 352.554 119 352.554ZM130.75 355.742H125.692C123.654 356.758 121.387 357.335 119 357.335C116.613 357.335 114.355 356.758 112.308 355.742H107.25C100.76 355.742 95.5 361.449 95.5 368.492V370.085C95.5 372.725 97.4736 374.867 99.9062 374.867H138.094C140.526 374.867 142.5 372.725 142.5 370.085V368.492C142.5 361.449 137.24 355.742 130.75 355.742Z" fill="white"/>
    <path d="M136.466 202.367C139.453 202.367 141.858 204.783 142 207.629V253.367L136.316 248.536L133.197 245.698L129.786 242.725L131.205 247.408H101.393C98.4135 247.408 96 245.149 96 242.145V207.639C96 204.792 98.4151 202.376 101.402 202.376H136.45L136.466 202.367ZM123.471 214.444H123.404L122.972 214.868C127.379 216.146 129.51 218.138 129.51 218.138C126.673 216.718 124.108 216.004 121.553 215.714C119.711 215.432 117.86 215.582 116.301 215.714H115.869C114.873 215.714 112.75 216.146 109.903 217.283C108.915 217.715 108.343 217.997 108.343 217.997C108.343 217.997 110.467 215.863 115.163 214.726L114.873 214.444C114.873 214.444 111.322 214.302 107.489 217.142C107.489 217.142 103.656 223.825 103.656 232.058C103.656 232.058 105.78 235.753 111.606 235.893C111.606 235.893 112.46 234.764 113.315 233.768C110.046 232.772 108.768 230.78 108.768 230.78C108.768 230.78 109.058 230.922 109.482 231.204H109.606C109.673 231.204 109.707 231.237 109.739 231.271V231.287C109.772 231.32 109.806 231.344 109.863 231.344C110.569 231.634 111.265 231.916 111.838 232.199C112.834 232.622 114.104 233.053 115.663 233.336C117.639 233.627 119.902 233.76 122.483 233.336C123.753 233.046 125.031 232.772 126.308 232.199C127.13 231.775 128.15 231.352 129.27 230.63C129.27 230.63 128 232.622 124.589 233.619C125.287 234.607 126.273 235.743 126.273 235.743C132.105 235.611 134.371 231.916 134.495 232.074C134.495 223.849 130.637 217.158 130.637 217.158C127.168 214.576 123.915 214.478 123.344 214.478L123.46 214.436L123.471 214.444ZM123.828 223.825C125.322 223.825 126.525 225.095 126.525 226.655C126.525 228.233 125.314 229.502 123.828 229.502C122.334 229.502 121.131 228.232 121.131 226.671C121.131 225.094 122.341 223.825 123.828 223.825ZM114.179 223.825C115.663 223.825 116.868 225.095 116.868 226.655C116.868 228.233 115.657 229.502 114.171 229.502C112.676 229.502 111.466 228.232 111.466 226.671C111.466 225.094 112.676 223.825 114.171 223.825H114.179Z" fill="white"/>
    <path d="M261.5 7.42859V12.0714C261.5 16.163 250.974 19.5 238 19.5C225.026 19.5 214.5 16.163 214.5 12.0714V7.42859C214.5 3.33704 225.026 0 238 0C250.974 0 261.5 3.33704 261.5 7.42859ZM261.5 17.875V28.3214C261.5 32.413 250.974 35.75 238 35.75C225.026 35.75 214.5 32.413 214.5 28.3214V17.875C219.549 21.2411 228.79 22.8081 238 22.8081C247.21 22.8081 256.451 21.2411 261.5 17.875ZM261.5 34.125V44.5714C261.5 48.663 250.974 52 238 52C225.026 52 214.5 48.663 214.5 44.5714V34.125C219.549 37.4911 228.79 39.0581 238 39.0581C247.21 39.0581 256.451 37.4911 261.5 34.125Z" fill="white"/>
</svg>
