<svg width="152" height="303" viewBox="0 0 152 303" fill="none" xmlns="http://www.w3.org/2000/svg">
    <path d="M51.8256 51.8395C51.8256 51.8395 115.62 19.9631 147.51 4.006C153.315 1.14485 159.742 -0.222029 166.208 0.0293439C175.879 0.622686 187.38 9.97729 187.38 9.97729L303 125.603V249.183H249.18V303H123.586L9.96112 189.381C3.82537 183.069 0 174.169 0 165.458C0 161.431 2.2725 155.132 3.9895 151.508L51.8256 51.8395ZM60.398 60.4114V209.214C60.4232 216.069 60.6631 222.141 66.6852 228.252L128.826 290.376H236.555V236.558L60.398 60.4114ZM212.592 51.8521C201.243 40.5407 189.754 29.3809 178 18.4861C174.187 15.1154 170.842 12.5779 164.491 12.6536C159.82 12.8304 153.507 15.1154 153.507 15.1154L80.0551 51.8395L212.592 51.8521Z" fill="#202020"/>
</svg>
