<svg width="165" height="223" viewBox="0 0 165 223" fill="none" xmlns="http://www.w3.org/2000/svg">
    <path d="M53.1537 172.444C53.1537 172.444 44.5974 177.413 59.2283 179.078C76.956 181.113 86.0225 180.827 105.54 177.12C105.54 177.12 110.664 180.354 117.843 183.148C74.048 201.845 18.74 182.026 53.1467 172.444H53.1537ZM47.792 148.053C47.792 148.053 38.1803 155.126 52.8181 156.611C71.7971 158.569 86.7146 158.757 112.6 153.788C112.6 153.788 116.172 157.384 121.82 159.37C68.8821 174.792 9.89711 160.569 47.799 148.053H47.792ZM92.9011 106.644C103.673 119.021 90.056 130.164 90.056 130.164C90.056 130.164 117.437 116.038 104.876 98.407C93.1247 81.9257 84.0932 73.7652 132.872 45.5553C132.872 45.5553 56.3064 64.6151 92.8941 106.651L92.9011 106.644ZM150.796 190.521C150.796 190.521 157.136 195.706 143.84 199.741C118.57 207.358 38.6556 209.644 16.4471 200.027C8.47807 196.577 23.4375 191.755 28.1351 190.772C33.0493 189.685 35.8525 189.908 35.8525 189.908C26.9677 183.664 -21.5247 202.138 11.2113 207.434C100.521 221.881 173.983 200.94 150.796 190.521ZM57.264 122.756C57.264 122.756 16.6009 132.373 42.8428 135.858C53.9506 137.342 76.0542 137.021 96.6619 135.279C113.474 133.857 130.377 130.847 130.377 130.847C130.377 130.847 124.442 133.384 120.143 136.331C78.8504 147.147 -0.910034 142.102 22.0604 131.035C41.4657 121.704 57.264 122.756 57.264 122.756ZM130.188 163.405C172.13 141.628 152.725 120.756 139.219 123.592C135.899 124.24 134.41 124.868 134.41 124.868C134.41 124.868 135.612 122.937 137.982 122.108C164.776 112.707 185.384 149.795 129.349 164.499C129.349 164.465 130.013 163.921 130.188 163.412V163.405ZM104.883 0C104.883 0 128.119 23.1575 82.8209 58.7961C46.5268 87.3962 74.5513 103.696 82.8209 122.317C61.633 103.257 46.0864 86.4972 56.5021 70.887C71.825 47.9108 114.243 36.8024 104.883 0ZM61.3744 222.313C101.646 224.85 163.497 220.863 165 201.88C165 201.88 162.155 209.065 131.677 214.794C97.312 221.254 54.8943 220.487 29.7359 216.355C29.7359 216.355 34.9087 220.599 61.3674 222.313H61.3744Z" fill="#202020"/>
</svg>
