<svg width="301" height="392" viewBox="0 0 301 392" fill="none" xmlns="http://www.w3.org/2000/svg">
    <path d="M-91 0H301V392H-91V0ZM268.889 298.508C266.03 280.623 254.385 265.596 219.84 251.582C207.818 245.947 194.458 242.027 190.489 232.962C189.002 227.572 188.774 224.632 189.737 221.447C192.187 210.896 204.682 207.727 214.482 210.667C220.852 212.627 226.732 217.527 230.424 225.367C247.312 214.326 247.312 214.326 259.089 206.992C254.679 200.132 252.49 197.176 249.517 194.252C239.227 182.737 225.524 176.857 203.229 177.364L191.714 178.817C180.672 181.512 170.154 187.392 163.784 195.232C145.164 216.319 150.537 253.069 173.077 268.259C195.372 284.919 227.974 288.577 232.139 304.274C236.059 323.384 217.929 329.509 200.027 327.304C186.781 324.364 179.447 317.732 171.362 305.482L141.472 322.649C144.902 330.489 148.822 333.902 154.702 340.762C183.122 369.444 254.172 367.974 266.929 324.364C267.402 322.894 270.849 312.849 268.137 297.414L268.889 298.508ZM122.166 180.173H85.449C85.449 211.827 85.302 243.285 85.302 274.988C85.302 295.111 86.331 313.584 83.048 319.268C77.658 330.521 63.7747 329.084 57.47 327.108C51.002 323.906 47.719 319.496 43.9133 313.143C42.8843 311.428 42.1167 309.941 41.839 309.941L12.0307 328.316C17.0123 338.606 24.2807 347.459 33.656 353.094C47.621 361.424 66.388 364.119 86.037 359.709C98.826 356.018 109.851 348.423 115.617 336.663C123.947 321.473 122.183 302.853 122.101 282.011C122.297 248.463 122.101 214.898 122.101 181.088L122.166 180.173Z" fill="#202020"/>
</svg>
