<svg width="625" height="623" viewBox="0 0 625 623" fill="none" xmlns="http://www.w3.org/2000/svg">
    <path d="M370.802 4.6725L394.123 9.86417L413.039 16.6133L428.327 24.4008L439.988 32.7075L448.798 41.5333L455.276 50.3592L459.422 58.9254L462.013 66.7129L463.049 73.4621L463.568 78.6537L463.308 82.0283V220.646L462.013 237L458.644 251.277L453.203 263.218L446.466 273.082L438.692 281.129L430.141 287.618L421.072 292.55L412.003 296.185L403.452 298.78L395.678 300.598L388.941 301.636L383.499 302.155H228.804L210.925 303.453L195.636 307.087L182.68 312.798L172.056 319.807L163.505 328.113L156.509 337.199L151.327 346.544L147.44 356.148L144.849 365.234L143.035 373.54L141.998 380.549L141.48 386V465.433H83.6961L78.2546 464.654L70.9992 462.837L62.7073 459.722L53.6381 455.05L44.3097 448.3L34.9813 438.955L25.9121 427.015L17.6202 411.699L10.3648 392.75L4.9233 369.906L1.29561 342.65L0 310.721L1.55473 279.052L5.70066 252.055L11.9196 229.472L20.2114 211.041L29.5398 196.245L39.9046 184.823L50.7877 176.257L61.6708 170.027L72.0357 165.874L81.364 163.278L89.6559 161.98L95.8748 161.72H100.021L101.575 161.98H313.018V140.435H161.692L161.432 69.0492L160.914 59.4446L162.21 50.6188L165.06 42.5717L169.465 35.3033L175.943 28.5542L183.976 22.5837L193.823 17.3921L205.224 12.7196L218.439 8.82583L233.468 5.71083L250.052 3.115L268.449 1.5575L288.402 0.519167L310.168 0L343.076 1.29792L370.802 4.6725ZM207.556 56.07L201.596 64.6363L199.523 75.2792L201.596 85.9221L207.556 94.7479L216.107 100.459L226.731 102.795L237.355 100.459L245.906 94.7479L251.866 85.9221L253.939 75.2792L251.866 64.6363L245.906 56.07L237.355 50.3592L226.731 48.0229L216.107 50.3592L207.556 56.07ZM546.745 158.605L554.001 160.163L562.293 163.278L571.362 167.95L580.69 174.959L590.019 184.045L599.088 196.245L607.38 211.56L614.635 230.51L620.077 253.353L623.704 280.35L625 312.279L623.445 344.208L619.299 371.204L613.08 393.528L604.789 411.959L595.46 426.755L585.095 438.436L574.212 447.003L563.329 453.232L552.964 457.386L543.636 459.722L535.344 461.02L529.125 461.539L524.979 461.28H311.982V482.565H463.308L463.568 554.21L464.086 563.555L462.79 572.381L459.94 580.428L455.535 587.956L449.057 594.446L441.024 600.676L431.177 605.867L419.776 610.28L406.561 614.174L391.532 617.549L374.948 619.885L356.551 621.702L336.598 622.74L314.832 623L281.924 621.962L254.198 618.328L230.877 613.136L211.961 606.646L196.673 598.859L185.012 590.292L176.202 581.467L169.724 572.641L165.578 564.075L162.987 556.287L161.951 549.798L161.432 544.606L161.692 541.231V402.614L162.987 386L166.356 371.983L171.797 360.042L178.534 350.178L186.308 341.871L194.859 335.641L203.928 330.45L212.998 326.815L221.549 324.22L229.322 322.662L236.059 321.624L241.501 321.105L244.869 320.845H396.196L414.076 319.547L429.364 315.913L442.32 310.462L452.944 303.193L461.495 294.887L468.491 285.801L473.673 276.456L477.56 267.111L480.151 258.026L481.965 249.719L483.002 242.451L483.52 237V157.567H537.676L541.304 157.827L546.745 158.605ZM379.094 528.512L373.134 537.078L371.061 547.721L373.134 558.364L379.094 566.93L387.645 572.9L398.269 574.977L408.893 572.9L417.444 566.93L423.404 558.364L425.477 547.721L423.404 537.078L417.444 528.512L408.893 522.541L398.269 520.465L387.645 522.541L379.094 528.512Z" fill="#202020"/>
</svg>
